<?xml version="1.0" encoding="utf-8"?>
<!-- Generator: Adobe Illustrator 28.0.0, SVG Export Plug-In . SVG Version: 6.00 Build 0)  -->
<svg version="1.1" id="Layer_1" xmlns="http://www.w3.org/2000/svg" xmlns:xlink="http://www.w3.org/1999/xlink" x="0px" y="0px"
	 viewBox="0 0 280 110" style="enable-background:new 0 0 280 110;" xml:space="preserve">
<style type="text/css">
	.st0{fill:#FFFFFF;}
	.st1{fill:#7C41D8;}
	.st2{fill:#3A0E7F;}
	.st3{fill:#4C1791;}
	.st4{fill:none;stroke:#3A0E7F;stroke-width:20;stroke-miterlimit:10;}
	.st5{display:none;fill:url(#SVGID_1_);}
	.st6{clip-path:url(#SVGID_00000137849878762434622460000011586750711766346383_);}
	.st7{fill:url(#SVGID_00000005945414737320213430000000010823473658324405_);}
	.st8{fill:url(#SVGID_00000117668471480192320990000004941699720158145962_);}
	.st9{fill:url(#SVGID_00000141418277507957644750000000900125692644163992_);}
	.st10{fill:url(#SVGID_00000114760877626465136370000008442916728531337640_);}
	.st11{fill:none;stroke:#FFFFFF;stroke-width:20;stroke-miterlimit:10;}
	.st12{fill:none;stroke:#3A0E7F;stroke-width:32;stroke-miterlimit:10;}
	.st13{fill:#666666;}
	.st14{fill:#999999;}
	.st15{fill:#4D4D4D;}
	.st16{clip-path:url(#SVGID_00000071538819558530217130000012851287659245379259_);}
	.st17{fill:url(#SVGID_00000124853700080432303370000012331916788406232740_);}
	.st18{fill:url(#SVGID_00000084525437252967495660000010541705151259664809_);}
	.st19{fill:url(#SVGID_00000114061145210547606220000011133527352800173974_);}
	.st20{fill:url(#SVGID_00000103956399378957376110000017209321204071008426_);}
	.st21{fill:#666666;stroke:#666666;stroke-width:0.5;stroke-miterlimit:10;}
	.st22{fill:none;stroke:#FFFFFF;stroke-width:4;stroke-linecap:round;stroke-linejoin:round;stroke-miterlimit:10;}
	.st23{fill:none;stroke:#FFFFFF;stroke-width:6;stroke-linecap:round;stroke-miterlimit:10;}
	.st24{fill:#852ADD;}
	.st25{display:none;}
	.st26{display:inline;fill:none;stroke:#FFFFFF;stroke-width:0.75;stroke-miterlimit:10;}
	.st27{fill:#6933D1;}
	.st28{fill:none;stroke:#000000;stroke-miterlimit:10;}
	.st29{fill:#0AA587;}
	.st30{fill:none;stroke:#FFFFFF;stroke-width:7;stroke-linecap:round;stroke-miterlimit:10;}
	.st31{fill:#8762F9;}
	.st32{fill:#485BE5;}
	.st33{fill:#0F0F23;}
	.st34{fill:#792CBF;}
	.st35{fill:#9E2AC1;}
	.st36{fill:#1A48A1;}
</style>
<g>
	<g>
		<path class="st24" d="M87.6,15.7v25.7c0,8.9-1.9,17.6-5.6,25.4L70.7,55.7c1.5-4.5,2.3-9.3,2.3-14.3V26L43.8,15.5L14.6,26v15.5
			c0,9.4,2.8,18.3,8.1,25.8L12.2,77.7C4.3,67.3,0,54.7,0,41.4V15.7L43.8,0L87.6,15.7z"/>
		<path class="st24" d="M73.9,79.5c-1.2,1.5-2.5,2.9-3.9,4.3L43.8,110L22.1,88.3L32.4,78l11.4,11.4l15.9-15.9
			c1.4-1.4,2.7-2.8,3.8-4.4L73.9,79.5z"/>
		<path class="st24" d="M43.8,28.7L43.8,28.7L43.8,28.7c3.6,6.5,8.9,11.9,15.4,15.4l0,0l0,0c-6.5,3.6-11.9,8.9-15.4,15.4l0,0l0,0
			c-3.6-6.5-8.9-11.9-15.4-15.4l0,0l0,0C34.9,40.5,40.2,35.2,43.8,28.7z"/>
	</g>
	<g>
		<g>
			<g>
				<path class="st24" d="M112.2,70.6L98.9,39.4h9.5l11.3,27H114l11.5-27h8.7l-13.4,31.2H112.2z"/>
				<path class="st24" d="M131.5,70.6l13.8-31.2h8.7l13.8,31.2h-9.2l-10.8-26.9h3.5l-10.8,26.9H131.5z M139,64.5l2.3-6.5h15.3
					l2.3,6.5H139z"/>
				<path class="st24" d="M170.3,70.6V39.4h8.8v24.2H194v7H170.3z"/>
				<path class="st24" d="M197.6,70.6V39.4h8.8v31.2H197.6z"/>
				<path class="st24" d="M208.5,70.6l13.7-19l0,6.3L209,39.4h10l8.3,12.1h-4.2l8.3-12.1h9.5l-13.1,18.2v-6.2l13.8,19.3h-10.2
					l-8.5-12.7h4.1l-8.4,12.7H208.5z"/>
			</g>
		</g>
		<g>
			<polygon class="st24" points="256.5,44.4 258.1,48.3 254.8,48.3 			"/>
			<path class="st24" d="M255,39.4c-3.3,0-6.3,1.6-8.2,4.2l-8,11.4h25c3.3,0,6.3-1.6,8.2-4.2l8-11.4H255z M259.8,52.4l-0.9-2.2h-4.8
				l-0.9,2.2h-2.5l4.6-10.3h2.4l4.6,10.3H259.8z M265.8,52.4h-2.4V42h2.4V52.4z"/>
		</g>
	</g>
</g>
</svg>
